<svg width="803" height="57" viewBox="0 0 803 57" fill="none" xmlns="http://www.w3.org/2000/svg">
<g filter="url(#filter0_d_85_6)">
<path d="M48.31 36.7V38.5H36.16V9.475H26.215L19.375 38.5H11.5L18.34 9.475H10.735V7.675H18.79L20.005 2.5H27.88L26.665 7.675H43.81V36.7H48.31Z" fill="url(#paint0_linear_85_6)"/>
<path d="M64.15 2.5L69.055 7.405L64.15 12.31L59.245 7.405L64.15 2.5ZM99.115 36.25V38.05H70.27V36.25H80.98V5.875H70.675V4.075H98.755V5.875H88.45V36.25H99.115ZM64.15 12.895L69.055 17.8L64.15 22.705L59.245 17.8L64.15 12.895ZM60.955 23.245H68.65L66.625 38.5H58.93L60.955 23.245Z" fill="url(#paint1_linear_85_6)"/>
<path d="M132.145 7V12.49H146.14V35.35H138.49V14.29H132.145V38.5H124.495V14.29H118.51V35.35H110.86V12.49H124.495V7H108.61V5.2H124.27L123.325 2.5H131.155L132.1 5.2H148.435V7H132.145Z" fill="url(#paint2_linear_85_6)"/>
<path d="M165.355 21.22H157.165L165.625 2.86H173.815L165.355 21.22ZM190.69 21.22L182.68 2.86H190.78L198.79 21.22H190.69ZM188.125 20.545L196.36 38.095H162.025V36.295L172.24 13.75H180.835L170.62 36.295H187.765L180.385 20.545H188.125Z" fill="url(#paint3_linear_85_6)"/>
<path d="M248.2 24.505V26.305H206.8V24.505H215.8V11.68H208.285V9.88H215.8V2.5H223.45V9.88H231.64V2.5H239.29V9.88H246.85V11.68H239.29V24.505H248.2ZM223.45 24.505H231.64V11.68H223.45V24.505ZM214.72 28.51H223.315L217.69 38.5H209.095L214.72 28.51ZM240.325 28.51L245.905 38.5H237.355L231.775 28.51H240.325Z" fill="url(#paint4_linear_85_6)"/>
<path d="M296.125 3.445V37.555H257.875V3.445H296.125ZM288.475 5.245H265.525V35.755H288.475V5.245ZM265.57 23.875L270.61 18.205L266.515 14.425H274.525L276.64 16.54L280.015 10.915H273.85L273.175 13.165H266.605L268.36 7.18H274.93L274.345 9.115H287.44V10.87L282.94 17.665L288.43 23.875H280.15L276.82 19.825L273.715 23.875H265.57ZM285.64 25.54V28.69L268.18 28.105V24.955L285.64 25.54ZM267.28 29.905L286.675 30.535V33.685L267.28 33.055V29.905Z" fill="url(#paint5_linear_85_6)"/>
<path d="M345.94 18.61V35.215H338.29V20.41H326.23V38.455H318.58V20.41H307.06V18.61H318.58V8.26H309.76V6.46H318.58V2.635H326.23V6.46H336.265L335.5 2.5H343.285L344.635 9.295H340.45V18.61H345.94ZM326.23 18.61H332.8V8.26H326.23V18.61Z" fill="url(#paint6_linear_85_6)"/>
<path d="M362.68 16.63H355.255L357.055 2.5H364.48L364.03 6.145H369.835V7.675L368.845 16.63H364.3L365.29 7.945H363.805L362.68 16.63ZM380.005 22.57V26.98H394.72V38.5H372.805V15.28H370.285V5.785H379.375L378.97 2.5H386.035L386.44 5.785H396.745V15.28H393.19V22.57H380.005ZM377.44 7.585V12.67H389.545V7.585H377.44ZM386.035 14.47H380.005V20.77H386.035V14.47ZM366.685 36.7H369.88V38.5H359.035V17.98H366.685V36.7ZM380.005 28.78V36.7H387.52V28.78H380.005Z" fill="url(#paint7_linear_85_6)"/>
<path d="M405.835 2.815H422.575V38.14H415.195V27.295H412.495L412.225 38.14H404.8L405.835 2.815ZM440.8 38.185L438.28 31.435L437.11 38.185H431.305L433.87 29.455L431.035 21.445V38.185H423.925V2.815H445.12V15.1H437.875V4.525H431.035V16.675H445.795V18.295L442.87 29.005L446.2 38.185H440.8ZM413.125 4.615L412.855 14.155H415.195V4.615H413.125ZM415.195 25.495V15.955H412.81L412.585 25.495H415.195ZM431.035 20.68H436.345L438.235 26.62H438.415L440.44 18.52L431.035 18.475V20.68Z" fill="url(#paint8_linear_85_6)"/>
<path d="M454.48 20.815L464.605 15.19L457.63 10.915H469.69L476.17 14.605L483.37 6.82H467.215L465.775 9.34H456.955L460.87 2.5H469.69L468.25 5.02H493.945V6.73L485.98 15.235L495.565 20.815H482.74L475.45 16.9L468.745 20.815H454.48ZM478.735 23.515H493.36V38.5H485.71V25.315H477.385L467.395 38.5H457.765L467.8 25.315H455.245V23.515H469.15L470.77 21.4H480.355L478.735 23.515Z" fill="url(#paint9_linear_85_6)"/>
<path d="M511.225 12.85H504.07V11.05H511.225V2.5H518.29V11.05H525.4V12.85H518.29V20.995H511.225V12.85ZM543.13 21.175L539.125 28.69L544.93 38.5H536.83L535.3 35.8L533.86 38.5H526.165L531.385 28.78L527.335 21.58V14.245H533.455V19.105L535.075 21.85L536.56 19.06V9.025H533.68L532.96 12.85H526.345L528.28 2.5H534.895L533.995 7.225H545.47V9.025H543.13V21.175ZM505.825 9.925L504.835 3.4H509.83L510.865 9.925H505.825ZM523.735 9.925H518.74L519.82 3.4H524.815L523.735 9.925ZM504.385 20.995L505.735 13.975H510.91L509.515 20.995H504.385ZM518.92 13.975H524.05L525.4 20.995H520.27L518.92 13.975ZM523.15 23.56H525.49V25.36H523.15V31.57L520.135 33.28L525.445 38.5H516.76L514.465 36.115L512.17 38.5H503.53L508.84 33.46L505.825 31.57V25.36H504.07V23.56H505.825V21.625H511.945V23.56H517.03V21.625H523.15V23.56ZM517.03 25.36H511.945V28.96L514.6 30.625L517.03 28.96V25.36Z" fill="url(#paint10_linear_85_6)"/>
<path d="M563.695 21.22L565.72 20.86V22.705L563.695 23.065V38.5H553.705V36.7H556.045V24.505L553.615 24.955V23.11L556.045 22.66V10.42H553.705V8.62H556.045V2.5H563.695V8.62H565.99V10.42H563.695V21.22ZM586.555 20.77V24.955H593.62V38.05H574.54V24.955H579.175V20.77H573.73L573.19 38.5H565.99L567.07 3.265H593.71V14.785H586.555V18.97H594.385V20.77H586.555ZM574.225 5.065L574 12.985H586.06V5.065H574.225ZM579.175 18.97V14.785H573.91L573.775 18.97H579.175ZM586.24 26.755H581.92V36.25H586.24V26.755Z" fill="url(#paint11_linear_85_6)"/>
<path d="M612.475 13.435L611.215 38.095H603.745L605.5 2.905H642.04V13.435H612.475ZM612.925 4.255L612.565 11.635H634.48V4.255H612.925ZM622.78 36.295H628.99V38.095L615.22 38.14V26.44H612.61V24.64H617.38V19.645H613.51V17.845H617.38V14.875H624.94V17.845H630.52V14.875H638.08V17.845H641.95V19.645H638.08V24.64H642.85V26.44H622.78V36.295ZM624.94 24.64H630.52V19.645H624.94V24.64ZM643.3 38.095H634.21L624.715 28.15H633.76L636.955 31.48L642.355 30.355V32.245L638.485 33.055L643.3 38.095Z" fill="url(#paint12_linear_85_6)"/>
<path d="M689.56 4.84H656.17V3.04H689.56V4.84ZM693.52 14.2V16H677.14V37.96H669.49V16H652.525V14.2H693.52ZM657.205 19.285H664.81L661.57 36.655H653.965L657.205 19.285ZM688.525 19.285L691.765 36.655H684.16L680.92 19.285H688.525Z" fill="url(#paint13_linear_85_6)"/>
<path d="M726.505 38.455H718.855V25.315H704.68V23.38L718.27 15.91H706.3V14.11L714.985 5.695L703.69 6.325V4.525L739.195 2.59V4.39L725.29 5.155L716.74 14.11H720.52L727.36 7.9H737.26L725.425 19.375L719.665 23.515H734.02L731.95 16H738.97L741.535 25.315H726.505V38.455ZM706.66 27.565H714.355L711.205 36.565H703.51L706.66 27.565ZM738.88 27.565L741.535 36.565H733.93L731.23 27.565H738.88Z" fill="url(#paint14_linear_85_6)"/>
<path d="M761.965 8.35H766.6L760.57 27.025H765.88V28.825H752.515V27.115L755.26 18.61H751.255V16.81L755.845 2.5H762.685L758.05 16.81H759.22L761.965 8.35ZM775.195 19.555H785.59L783.385 11.68H789.595L792.295 21.355H787.93V36.7H792.7V38.5H780.28V21.355H777.31L775.375 38.5H767.68L769.615 21.355H766.87V19.555L772.315 6.955H766.645V5.155H775.465L774.925 2.5H782.755L783.295 5.155H792.7V6.955H780.64L775.195 19.555ZM751.3 35.8L766.06 34.315V36.115L751.3 37.6V35.8Z" fill="url(#paint15_linear_85_6)"/>
</g>
<defs>
<filter id="filter0_d_85_6" x="0.734985" y="0.5" width="801.965" height="56" filterUnits="userSpaceOnUse" color-interpolation-filters="sRGB">
<feFlood flood-opacity="0" result="BackgroundImageFix"/>
<feColorMatrix in="SourceAlpha" type="matrix" values="0 0 0 0 0 0 0 0 0 0 0 0 0 0 0 0 0 0 127 0" result="hardAlpha"/>
<feOffset dy="8"/>
<feGaussianBlur stdDeviation="5"/>
<feComposite in2="hardAlpha" operator="out"/>
<feColorMatrix type="matrix" values="0 0 0 0 0 0 0 0 0 0 0 0 0 0 0 0 0 0 0.25 0"/>
<feBlend mode="normal" in2="BackgroundImageFix" result="effect1_dropShadow_85_6"/>
<feBlend mode="normal" in="SourceGraphic" in2="effect1_dropShadow_85_6" result="shape"/>
</filter>
<linearGradient id="paint0_linear_85_6" x1="401.717" y1="6.5" x2="401.717" y2="38.5" gradientUnits="userSpaceOnUse">
<stop stop-color="white"/>
<stop offset="1" stop-color="#4AB0F7"/>
</linearGradient>
<linearGradient id="paint1_linear_85_6" x1="401.717" y1="6.5" x2="401.717" y2="38.5" gradientUnits="userSpaceOnUse">
<stop stop-color="white"/>
<stop offset="1" stop-color="#4AB0F7"/>
</linearGradient>
<linearGradient id="paint2_linear_85_6" x1="401.717" y1="6.5" x2="401.717" y2="38.5" gradientUnits="userSpaceOnUse">
<stop stop-color="white"/>
<stop offset="1" stop-color="#4AB0F7"/>
</linearGradient>
<linearGradient id="paint3_linear_85_6" x1="401.717" y1="6.5" x2="401.717" y2="38.5" gradientUnits="userSpaceOnUse">
<stop stop-color="white"/>
<stop offset="1" stop-color="#4AB0F7"/>
</linearGradient>
<linearGradient id="paint4_linear_85_6" x1="401.717" y1="6.5" x2="401.717" y2="38.5" gradientUnits="userSpaceOnUse">
<stop stop-color="white"/>
<stop offset="1" stop-color="#4AB0F7"/>
</linearGradient>
<linearGradient id="paint5_linear_85_6" x1="401.717" y1="6.5" x2="401.717" y2="38.5" gradientUnits="userSpaceOnUse">
<stop stop-color="white"/>
<stop offset="1" stop-color="#4AB0F7"/>
</linearGradient>
<linearGradient id="paint6_linear_85_6" x1="401.717" y1="6.5" x2="401.717" y2="38.5" gradientUnits="userSpaceOnUse">
<stop stop-color="white"/>
<stop offset="1" stop-color="#4AB0F7"/>
</linearGradient>
<linearGradient id="paint7_linear_85_6" x1="401.717" y1="6.5" x2="401.717" y2="38.5" gradientUnits="userSpaceOnUse">
<stop stop-color="white"/>
<stop offset="1" stop-color="#4AB0F7"/>
</linearGradient>
<linearGradient id="paint8_linear_85_6" x1="401.717" y1="6.5" x2="401.717" y2="38.5" gradientUnits="userSpaceOnUse">
<stop stop-color="white"/>
<stop offset="1" stop-color="#4AB0F7"/>
</linearGradient>
<linearGradient id="paint9_linear_85_6" x1="401.717" y1="6.5" x2="401.717" y2="38.5" gradientUnits="userSpaceOnUse">
<stop stop-color="white"/>
<stop offset="1" stop-color="#4AB0F7"/>
</linearGradient>
<linearGradient id="paint10_linear_85_6" x1="401.717" y1="6.5" x2="401.717" y2="38.5" gradientUnits="userSpaceOnUse">
<stop stop-color="white"/>
<stop offset="1" stop-color="#4AB0F7"/>
</linearGradient>
<linearGradient id="paint11_linear_85_6" x1="401.717" y1="6.5" x2="401.717" y2="38.5" gradientUnits="userSpaceOnUse">
<stop stop-color="white"/>
<stop offset="1" stop-color="#4AB0F7"/>
</linearGradient>
<linearGradient id="paint12_linear_85_6" x1="401.717" y1="6.5" x2="401.717" y2="38.5" gradientUnits="userSpaceOnUse">
<stop stop-color="white"/>
<stop offset="1" stop-color="#4AB0F7"/>
</linearGradient>
<linearGradient id="paint13_linear_85_6" x1="401.717" y1="6.5" x2="401.717" y2="38.5" gradientUnits="userSpaceOnUse">
<stop stop-color="white"/>
<stop offset="1" stop-color="#4AB0F7"/>
</linearGradient>
<linearGradient id="paint14_linear_85_6" x1="401.717" y1="6.5" x2="401.717" y2="38.5" gradientUnits="userSpaceOnUse">
<stop stop-color="white"/>
<stop offset="1" stop-color="#4AB0F7"/>
</linearGradient>
<linearGradient id="paint15_linear_85_6" x1="401.717" y1="6.5" x2="401.717" y2="38.5" gradientUnits="userSpaceOnUse">
<stop stop-color="white"/>
<stop offset="1" stop-color="#4AB0F7"/>
</linearGradient>
</defs>
</svg>
